<svg height="17" width="17" xmlns="http://www.w3.org/2000/svg" viewBox="0 0 24 24"><title>download</title><g fill="#363535" class="nc-icon-wrapper"><g id="1668490396734-7345236_Layer_2" data-name="Layer 2"><path d="M22 22.75H2a.75.75 0 0 1 0-1.5h20a.75.75 0 0 1 0 1.5z"></path><path d="M12 18.75a.75.75 0 0 1-.75-.75V2a.75.75 0 0 1 1.5 0v16a.75.75 0 0 1-.75.75z"></path><path d="M12 18.75a.744.744 0 0 1-.488-.181l-7-6a.75.75 0 0 1 .976-1.138L12 17.012l6.512-5.581a.75.75 0 0 1 .976 1.138l-7 6a.744.744 0 0 1-.488.181z"></path></g></g></svg>