<svg width="17" height="17" viewBox="0 0 17 17" fill="none" xmlns="http://www.w3.org/2000/svg">
<path d="M11.1421 2.125H5.85792L2.125 5.85792V11.1421L5.85792 14.875H11.1421L14.875 11.1421V5.85792L11.1421 2.125ZM13.4583 10.5542L10.5542 13.4583H6.44583L3.54167 10.5542V6.44583L6.44583 3.54167H10.5542L13.4583 6.44583V10.5542Z" fill="#0F0F0F"/>
<path d="M8.49984 12.0417C8.6877 12.0417 8.86787 11.967 9.0007 11.8342C9.13354 11.7014 9.20817 11.5212 9.20817 11.3333C9.20817 11.1455 9.13354 10.9653 9.0007 10.8325C8.86787 10.6996 8.6877 10.625 8.49984 10.625C8.31198 10.625 8.13181 10.6996 7.99897 10.8325C7.86613 10.9653 7.7915 11.1455 7.7915 11.3333C7.7915 11.5212 7.86613 11.7014 7.99897 11.8342C8.13181 11.967 8.31198 12.0417 8.49984 12.0417Z" fill="#0F0F0F"/>
<path d="M7.7915 4.95837H9.20817V9.91671H7.7915V4.95837Z" fill="#0F0F0F"/>
</svg>
