<svg width="17" height="17" viewBox="0 0 17 17" fill="none" xmlns="http://www.w3.org/2000/svg">
<g clip-path="url(#clip0_451_51)">
<path d="M9.00229 4.03063C6.66203 4.15177 4.474 5.12598 2.79528 6.80473C0.998071 8.6019 0.00830078 10.9831 0.00830078 13.5096V17L1.2727 14.0852C2.74954 11.1425 5.74444 9.19139 9.00229 9.00989V13.0324L16.9918 6.5063L9.00229 0V4.03063ZM9.99794 5.0134V2.09484L15.4165 6.50747L9.99794 10.9335V8.00033H9.50011C7.61244 8.00033 5.75875 8.53111 4.1395 9.53525C2.91326 10.2957 1.8685 11.2982 1.0665 12.4759C1.57787 8.27659 5.16501 5.0134 9.50011 5.0134H9.99794Z" fill="#363535"/>
</g>
<defs>
<clipPath id="clip0_451_51">
<rect width="17" height="17" fill="white"/>
</clipPath>
</defs>
</svg>
